<?xml version="1.0" standalone="no"?>
<!DOCTYPE svg PUBLIC "-//W3C//DTD SVG 20010904//EN"
 "http://www.w3.org/TR/2001/REC-SVG-20010904/DTD/svg10.dtd">
<svg version="1.0" xmlns="http://www.w3.org/2000/svg"
 width="512.000000pt" height="512.000000pt" viewBox="0 0 512.000000 512.000000"
 preserveAspectRatio="xMidYMid meet">
<metadata>
Created by potrace 1.11, written by Peter Selinger 2001-2013
</metadata>
<g transform="translate(0.000000,512.000000) scale(0.100000,-0.100000)"
fill="#000000" stroke="none">
<path d="M2448 4785 c-2 -1 -32 -5 -68 -9 -116 -11 -154 -16 -255 -37 -94 -20
-221 -53 -255 -66 -8 -4 -17 -7 -20 -8 -158 -40 -437 -187 -630 -333 -68 -52
-297 -272 -345 -332 -89 -111 -195 -264 -195 -280 0 -5 -4 -10 -10 -10 -5 0
-10 -4 -10 -9 0 -5 -19 -42 -42 -83 -75 -133 -199 -442 -222 -555 -4 -15 -15
-67 -25 -115 -19 -85 -24 -117 -39 -228 -12 -90 -8 -360 7 -430 19 -92 18 -90
30 -140 7 -25 14 -54 16 -65 3 -11 19 -63 36 -115 84 -256 208 -497 389 -755
117 -167 342 -387 518 -507 64 -43 241 -138 258 -138 3 0 45 -22 93 -49 95
-53 188 -90 312 -121 121 -31 173 -40 339 -60 74 -8 466 -6 505 3 11 3 43 8
70 11 185 24 449 103 621 186 238 115 430 253 619 444 157 159 272 307 376
486 59 101 78 136 103 193 l25 57 -82 24 c-45 14 -106 28 -136 31 -30 3 -57 8
-61 10 -38 23 -785 23 -809 -1 -2 -2 -12 18 -22 46 -48 136 -139 254 -235 307
l-41 22 0 -32 c-1 -150 -51 -339 -115 -430 -11 -15 -16 -27 -11 -27 4 0 -3 -7
-15 -16 -12 -8 -22 -20 -22 -26 0 -7 7 -3 16 8 15 18 15 17 1 -6 -9 -14 -20
-24 -26 -23 -6 2 -8 -3 -5 -11 9 -22 -114 -123 -202 -166 -122 -60 -215 -81
-374 -85 -146 -4 -199 5 -293 50 -29 14 -66 37 -84 52 -17 16 -52 45 -77 66
-47 39 -136 166 -174 249 -90 196 -112 374 -63 498 33 82 44 90 78 56 38 -38
98 -79 155 -105 54 -24 157 -53 168 -46 4 3 10 24 14 47 9 58 59 177 102 246
48 76 140 163 206 194 108 51 240 59 383 24 106 -27 197 -74 338 -175 123 -88
164 -113 267 -159 41 -18 153 -58 190 -68 200 -51 293 -66 425 -66 180 -1 320
30 470 103 111 55 171 101 178 136 7 35 2 366 -5 379 -3 5 -9 38 -13 74 -4 36
-9 68 -11 71 -2 3 -6 21 -9 40 -33 194 -147 497 -268 714 -156 277 -317 460
-614 696 -38 30 -212 129 -298 170 -176 84 -425 157 -591 175 -32 3 -78 9
-102 14 -39 7 -427 12 -434 5z m1581 -1435 c52 -24 77 -50 101 -106 38 -86 1
-196 -83 -249 -35 -22 -137 -28 -180 -10 -65 27 -118 109 -119 184 -1 144 149
241 281 181z"/>
<path d="M2990 1533 c-14 -9 -28 -21 -31 -26 -3 -5 -9 -8 -13 -8 -3 1 -6 -1
-6 -4 0 -11 12 -5 48 25 40 33 41 40 2 13z"/>
</g>
</svg>
