<svg width="126" height="126" viewBox="0 0 126 126" fill="none" xmlns="http://www.w3.org/2000/svg">
<path d="M15.7315 55.4055C9.56709 61.0767 8.80271 70.5452 13.8822 77.2027C15.7561 79.6685 17.5068 82.4301 18.2219 84.8959C19.9726 91.0603 21.7479 105.805 27.4191 108.937C33.0904 112.068 39.8959 113.721 43.5452 110.195C47.1945 106.669 47.4411 106.027 50.2274 108.049C52.5452 109.726 56.6876 113.425 61.2739 112.34C63.0986 111.921 64.9972 111.871 66.8712 112.093C67.8082 112.216 68.9424 112.118 70.1013 111.575C70.2246 111.526 70.3233 111.477 70.4465 111.403C74.2191 109.553 78.5342 105.337 82.5534 110.638C83.2685 111.575 85.0438 111.23 86.7205 111.329C94.7835 111.699 99.1972 111.575 101.318 106.225C103.438 100.874 106.866 85.2658 110.762 80.1123C111.304 79.3973 111.822 78.7069 112.315 78.0904C116.901 72.148 116.877 63.8384 112.192 57.9945C106.151 50.474 92.9096 42.7315 64.0602 42.5836C36.937 42.4603 22.9561 48.748 15.7315 55.4055Z" fill="#B0DCD3"/>
<path d="M51.7808 97.1753C50.548 103.858 57.4767 108.74 63.1973 105.608C65.0466 104.597 66.3781 102.945 66.9699 100.923C72.9863 80.3342 71.0877 84.1808 82.8247 68.4493C88.1014 61.3726 89.7288 52.2 87.1891 43.8904C83.811 32.9425 74.2685 19.874 47.8603 19.874C21.4521 19.874 11.9096 32.9425 8.53152 43.8904C5.96713 52.2 7.59453 61.3726 12.8959 68.4493C24.7069 84.2794 22.7589 80.4575 28.7507 100.923C29.9589 105.066 34.3233 107.458 38.4411 106.249C42.3123 105.115 44.6795 101.293 43.9644 97.3233L41.4986 83.8849C40.8082 80.1616 42.1644 76.3151 45.0493 73.8246C46.6767 72.4192 49.0685 72.3945 50.7206 73.8246C53.6055 76.2904 54.9617 80.137 54.2713 83.8849L51.7808 97.1753ZM42.5836 71.0383C38.7123 74.3671 36.8877 79.5452 37.8 84.5507L40.2658 97.989C40.6603 100.085 39.4028 102.107 37.3562 102.699C35.1863 103.34 32.8685 102.082 32.2521 99.8877C26.1123 78.9041 27.9123 82.4301 15.8301 66.2548C11.2438 60.1151 9.83837 52.1753 12.0575 45C14.9671 35.5068 23.2521 24.2137 45.9863 23.6219V29.9342C24.8055 30.526 16.9891 41.3753 14.1781 50.4986C13.8082 51.6822 14.6959 52.8904 15.9534 52.8904C16.7425 52.8904 17.4822 52.3726 17.7288 51.5836C21.2055 40.2904 30.9699 34.1014 45.9863 33.6329V40.2164C27.937 40.8082 21.2548 50.1041 18.8384 57.9699C18.5425 58.9562 19.0849 59.9918 20.0712 60.2877C21.0575 60.5835 22.0932 60.0411 22.3891 59.0548C25.2986 49.5863 33.4356 44.3836 45.9863 43.9397V49.9808C31.0932 50.5726 25.5452 58.3397 23.5233 64.874C23.2274 65.8603 23.7699 66.8959 24.7562 67.1918C25.7425 67.4877 26.7781 66.9452 27.074 65.9589C29.4411 58.2411 35.8028 54.0986 45.9863 53.6794V59.5726C30.8466 60.4109 26.1617 72.5178 30.1562 80.6301C30.6 81.5425 31.7096 81.937 32.6219 81.4685C33.5343 81.0246 33.9288 79.9151 33.4603 79.0027C32.3754 76.8082 32.1781 74.3178 32.8932 72C34.5452 66.6246 38.9589 63.6904 45.9863 63.2466V69.2877C44.7534 69.5835 43.5945 70.1507 42.5836 71.0383ZM53.0877 71.0383C52.0767 70.1753 50.9178 69.5835 49.6849 69.2877V63.2712C56.7123 63.6904 61.126 66.6246 62.7781 72.0246C63.4932 74.3178 63.2713 76.8082 62.211 79.0027C61.5945 80.2356 62.5069 81.6657 63.863 81.6657C64.5534 81.6657 65.1945 81.2959 65.5151 80.6301C67.0192 77.5726 67.2904 74.1205 66.3041 70.9151C63.9863 63.3699 57.5754 59.9918 49.6849 59.5479V53.6548C59.8685 54.0986 66.2302 58.2164 68.5973 65.9342C68.8932 66.9205 69.9288 67.463 70.9151 67.1671C71.9014 66.8712 72.4439 65.8356 72.148 64.8493C70.126 58.2904 64.5781 50.5479 49.6849 49.9562V43.9151C62.2356 44.3836 70.3726 49.5863 73.2822 59.0301C73.5781 60.0164 74.6137 60.5589 75.6 60.263C76.5863 59.9671 77.1288 58.9315 76.8329 57.9452C74.4165 50.1041 67.7343 40.7836 49.6849 40.1918V33.6082C64.726 34.0767 74.4658 40.2411 77.9425 51.5589C78.2384 52.5452 79.274 53.0877 80.2603 52.7918C81.2466 52.4959 81.7891 51.4603 81.4932 50.474C78.6822 41.3507 70.8658 30.5014 49.6849 29.9096V23.6219C72.4192 24.2137 80.7041 35.5068 83.6137 45C85.8082 52.1753 84.4028 60.1151 79.8411 66.2548C67.8082 82.3808 69.5836 78.8301 63.4192 99.8877C63.0987 100.948 62.4082 101.836 61.4219 102.353C58.3151 104.03 54.7644 101.318 55.4055 97.8411L57.8466 84.5507C58.7836 79.5452 56.9589 74.3671 53.0877 71.0383Z" fill="#2FB898"/>
<path d="M124.397 54.2712C123.386 54.148 122.449 54.863 122.326 55.874C121.636 61.2247 119.564 66.3534 116.334 70.6685C104.967 85.9069 107.014 81.6658 101.071 101.984C99.5672 107.137 94.8822 110.244 90.074 110.244C86.5973 110.244 83.1206 108.666 80.8767 105.633C79.6685 104.005 77.2521 104.03 76.0439 105.633C74.4658 107.753 72.2959 109.184 69.8548 109.849C71.8028 108.049 73.2576 105.682 74.022 103.044C79.3233 84.9452 78.2384 86.9178 84.4274 78.6329C85.5124 81.9123 85.0192 82.7753 82.3562 97.2247C81.4439 102.132 85.0932 106.619 90.0494 106.619C93.3781 106.619 96.5343 104.449 97.5452 100.973C103.586 80.3589 101.663 84.2301 113.4 68.4986C118.677 61.4219 120.304 52.2493 117.764 43.9397C112.29 26.137 96.2384 19.7014 77.5973 19.9233C75.5507 18.6411 73.3562 17.5315 71.0877 16.6192C93.1809 14.4 114.584 21.1808 121.266 42.8548C121.759 44.4329 122.104 46.0603 122.326 47.7123C122.474 48.7233 123.386 49.4384 124.397 49.2904C125.408 49.1425 126.123 48.2301 125.975 47.2192C125.729 45.3699 125.334 43.5205 124.792 41.7699C118.455 21.2055 100.233 12.5507 78.411 12.5507C72.937 12.5507 67.7836 13.0932 63.1233 14.1534C59.7206 13.389 56.0959 12.8959 52.2493 12.674C51.2384 12.6247 50.3507 13.389 50.3014 14.4247C50.2521 15.4603 51.0165 16.3233 52.0521 16.3726C83.3425 18.074 93.5507 39.7973 91.8 55.3562C91.8 55.3808 91.8 55.4055 91.8 55.4301C90.6165 65.7616 85.0932 71.2356 83.2932 73.9479C74.6384 85.537 76.1178 82.7014 70.4713 101.959C69.3617 105.732 66.4521 108.641 62.6795 109.751C58.1425 111.082 53.1863 109.504 50.2767 105.608C49.0685 104.005 46.6521 103.981 45.4439 105.608C39.8219 113.153 27.863 111.058 25.2 101.959C19.3315 81.937 21.4274 86.0548 9.93702 70.6438C-1.30682 55.6027 3.5014 35.211 17.5809 24.7069C24.263 19.726 33.0165 16.9151 43.6192 16.348C44.6302 16.2986 45.4192 15.411 45.3699 14.4C45.3206 13.389 44.4329 12.6 43.4219 12.6493C32.0795 13.2658 22.6356 16.3233 15.3617 21.7479C-0.419148 33.5343 -5.44929 56.2192 6.97811 72.8877C18.2959 88.0521 15.9781 83.6137 21.6493 103.019C23.9918 111.033 32.4247 115.669 40.4384 113.326C43.3726 112.488 45.9124 110.836 47.8356 108.518C51.5836 113.005 57.5754 114.879 63.1233 113.474C68.8192 114.904 74.7617 112.882 78.411 108.518C81.3699 112.068 85.685 113.918 90.0247 113.918C96.411 113.918 102.6 109.775 104.573 102.995C110.416 83.0219 108.271 87.5589 119.244 72.863C122.844 68.0301 125.162 62.3096 125.951 56.3425C126.123 55.3315 125.408 54.3945 124.397 54.2712ZM91.5535 68.4C93.8713 71.5315 94.537 75.4767 92.7863 79.0274C92.1699 80.2603 93.0822 81.6904 94.4384 81.6904C95.1288 81.6904 95.7699 81.3206 96.0904 80.6548C97.5946 77.5973 97.8658 74.1452 96.8795 70.9397C96.1398 68.4986 94.9069 66.4027 93.2302 64.7014C93.9699 62.8274 94.537 60.9041 94.9315 58.9562C96.8795 60.8301 98.3096 63.1726 99.1726 65.9836C99.4685 66.9699 100.504 67.5123 101.49 67.2164C102.477 66.9206 103.019 65.8849 102.723 64.8986C101.392 60.6082 99 57.1808 95.5726 54.6658C95.7452 52.4466 95.7206 50.2027 95.474 47.9589C99.5672 50.4986 102.378 54.2219 103.882 59.0795C104.178 60.0658 105.214 60.6082 106.2 60.3123C107.186 60.0164 107.729 58.9808 107.433 57.9945C105.362 51.2877 100.948 46.2329 94.6356 43.2986C93.9206 40.5616 92.7863 37.6274 91.6521 35.3343C100.356 37.9233 106.027 43.3726 108.567 51.6082C108.863 52.5945 109.899 53.137 110.885 52.8411C111.871 52.5452 112.414 51.5096 112.118 50.5233C109.849 43.1753 104.03 33.9041 89.0877 30.8959C87.2877 28.2082 85.0932 25.7671 82.7754 23.7452C103.66 25.0521 111.427 35.8767 114.238 45.0247C116.458 52.2 115.027 60.1397 110.466 66.2795C98.4082 82.4548 100.184 78.9041 94.0439 99.9123C93.7233 100.973 93.0329 101.86 92.0466 102.378C88.9398 104.055 85.3891 101.342 86.0302 97.8658L88.4713 84.5753C89.063 81.3452 88.5452 78.0658 87.0165 75.2055C88.8658 72.6658 90.074 71.1616 91.5535 68.4Z" fill="#2FB898"/>
</svg>
