<svg width="126" height="126" viewBox="0 0 126 126" fill="none" xmlns="http://www.w3.org/2000/svg">
<g clip-path="url(#clip0)">
<path d="M25.9136 68.6356C25.9136 68.6356 42.5742 48.259 75.8707 47.2992C109.167 46.3395 123.121 71.5887 123.121 71.5887C123.121 71.5887 99.8402 102.129 65.5593 92.2606C36.1511 83.8442 25.9136 68.6356 25.9136 68.6356Z" fill="#B0DCD3"/>
<path d="M117.436 51.5812C111.923 46.6594 104.541 42.4266 96.6164 39.6703C96.6164 39.6703 96.6164 39.6703 96.5918 39.6703H96.5671C92.925 38.3906 89.1597 37.4309 85.3945 36.791C83.1796 34.1086 75.7968 26.2828 63.0492 23.3051C60.9328 22.8129 58.7425 23.3051 57.0199 24.6586C55.2972 26.0367 54.3129 28.0547 54.3129 30.2695V40.4086C42.3281 45.675 32.8289 54.2883 27.7101 59.5793C26.9472 55.7402 25.2738 50.8922 21.5332 47.1516C14.4457 40.0641 3.02691 40.3594 2.55933 40.384C1.1566 40.4332 0.0245674 41.5652 -4.19691e-05 42.9434C-0.0246513 43.4355 -0.319964 54.8297 6.79215 61.9172C8.53941 63.6644 10.5574 64.9687 12.6246 65.9039C10.582 66.8637 8.56402 68.168 6.79215 69.9398C-0.295354 77.0519 -4.19691e-05 88.4461 -4.19691e-05 88.9383C0.0491768 90.341 1.18121 91.473 2.55933 91.4977C2.60855 91.4977 2.75621 91.4977 2.97769 91.4977C5.16793 91.4977 15.1347 91.1285 21.5332 84.7055C25.2984 80.9402 26.9718 75.9937 27.7101 72.0808C31.4507 75.9445 37.5539 81.6047 45.2812 86.4281V95.7305C45.2812 98.0191 46.3394 100.086 48.1605 101.464C49.4156 102.4 50.8921 102.892 52.4179 102.892C53.107 102.892 53.7961 102.793 54.4851 102.596C60.9082 100.677 65.7808 97.1824 68.0449 95.3367C70.2105 95.6566 72.3761 95.8289 74.4925 95.8289C81.7523 95.8289 89.0121 94.5984 96.075 92.2113C96.075 92.2113 96.075 92.2113 96.0996 92.2113C112.588 86.6004 125.975 74.7879 125.975 65.9039C126 61.5726 122.948 56.5277 117.436 51.5812ZM10.5574 58.1766C6.91519 54.5344 5.80777 49.0711 5.46324 45.8226C8.71168 46.1426 14.1503 47.25 17.7925 50.9168C21.4347 54.559 22.5421 59.8992 22.8867 63.0984C19.6875 62.8277 14.1996 61.8187 10.5574 58.1766ZM17.7925 80.9648C14.1503 84.607 8.71168 85.7144 5.46324 86.059C5.80777 82.8105 6.91519 77.3473 10.5574 73.7297C14.1996 70.0629 19.6875 68.9555 22.8867 68.6355C22.5668 71.8594 21.4593 77.298 17.7925 80.9648ZM59.6531 30.2695C59.6531 29.7035 59.8992 29.1867 60.3421 28.8422C60.5882 28.6453 61.1296 28.3254 61.8679 28.4976C68.5863 30.048 73.6066 33.198 76.9535 35.9297C76.1414 35.9051 75.3293 35.8805 74.5418 35.8805C69.6937 35.8805 64.698 36.7172 59.6777 38.366V30.2695H59.6531ZM52.9839 97.4777C52.4179 97.65 51.8273 97.5516 51.3597 97.1824C51.089 96.9855 50.6214 96.518 50.6214 95.7305V89.4797C54.1406 91.3008 57.6351 92.7281 61.105 93.7617C58.9886 95.066 56.2078 96.4934 52.9839 97.4777ZM74.5171 90.4641C72.3023 90.4641 70.0136 90.2672 67.725 89.8734C61.7449 88.8152 55.5679 86.4035 49.3418 82.6875C39.5472 76.8059 32.1644 69.1769 29.1867 65.8547C32.9765 61.6219 43.9031 50.3754 57.9796 44.666C58.0043 44.666 58.0043 44.6414 58.0289 44.6414C63.6398 42.3773 69.2015 41.2207 74.5171 41.2207C77.5195 41.2207 80.5464 41.4422 83.5488 41.9098C85.8375 42.2543 88.1507 42.7465 90.4148 43.3617C84.8285 49.2926 81.2847 58.0043 81.2847 66.4453C81.2847 74.148 84.7054 82.4906 90.0949 88.4215C84.9515 89.775 79.7343 90.4641 74.5171 90.4641ZM95.8043 86.6004C90.2671 81.6047 86.625 73.6805 86.625 66.3961C86.625 58.4473 90.5132 49.9324 96.198 45.1582C111.407 50.843 120.709 60.8836 120.709 65.8055C120.684 70.8258 111.259 80.9402 95.8043 86.6004Z" fill="#2FB898"/>
<path d="M105.623 62.5817C104.147 62.5817 102.966 63.7629 102.966 65.2395V66.4207C102.966 67.8973 104.147 69.0785 105.623 69.0785C107.1 69.0785 108.281 67.8973 108.281 66.4207V65.2395C108.281 63.7629 107.075 62.5817 105.623 62.5817Z" fill="#2FB898"/>
<path d="M78.0855 47.9637C77.0273 46.9547 75.3293 47.0039 74.3203 48.0621C74.0742 48.3328 73.8035 48.6035 73.582 48.8988C72.6469 50.0308 72.7699 51.7043 73.9019 52.6394C74.3941 53.0578 75.0094 53.2547 75.6246 53.2547C76.3875 53.2547 77.1258 52.9348 77.6672 52.3195C77.8394 52.1226 78.0117 51.9012 78.2086 51.7289C79.1929 50.6461 79.1437 48.9726 78.0855 47.9637Z" fill="#2FB898"/>
<path d="M77.7902 80.4727C74.8371 77.0766 73.1391 71.9086 73.1391 66.3223C73.1391 63.1969 73.6805 60.0961 74.7141 57.4137C75.2309 56.0356 74.5664 54.5098 73.1883 53.9684C71.8102 53.4516 70.2844 54.116 69.743 55.4941C68.4633 58.7918 67.7988 62.5324 67.7988 66.3223C67.7988 73.1883 69.9645 79.6113 73.7543 83.9672C74.2711 84.5824 75.0094 84.8777 75.7723 84.8777C76.3875 84.8777 77.0027 84.6562 77.5195 84.2379C78.627 83.2535 78.75 81.5801 77.7902 80.4727Z" fill="#2FB898"/>
</g>
<defs>
<clipPath id="clip0">
<rect width="126" height="126" fill="white"/>
</clipPath>
</defs>
</svg>
