<svg width="126" height="126" viewBox="0 0 126 126" fill="none" xmlns="http://www.w3.org/2000/svg">
<g clip-path="url(#clip0)">
<path d="M23.6495 63.0492C23.6495 63.0492 43.4355 46.4133 76.7319 45.4535C110.028 44.4938 123.982 69.743 123.982 69.743C123.982 69.743 100.701 100.283 66.4206 90.4149C37.0124 81.9985 23.6495 63.0492 23.6495 63.0492Z" fill="#B0DCD3"/>
<path d="M80.7187 54.3867C81.7276 54.3867 82.5644 53.55 82.5644 52.541C82.5644 51.532 81.7276 50.6953 80.7187 50.6953C78.8483 50.6953 77.3472 49.1695 77.3472 47.3238C77.3472 45.4535 78.873 43.9523 80.7187 43.9523C81.7276 43.9523 82.5644 43.1156 82.5644 42.1066C82.5644 41.0976 81.7276 40.2609 80.7187 40.2609C76.8058 40.2609 73.6558 43.4355 73.6558 47.3484C73.6558 49.4156 74.5417 51.2859 75.969 52.5656C74.5417 53.8699 73.6558 55.7156 73.6558 57.7828C73.6558 59.85 74.5417 61.7203 75.969 63C74.5417 64.3043 73.6558 66.15 73.6558 68.2172C73.6558 70.2844 74.5417 72.1547 75.969 73.4344C74.5417 74.7387 73.6558 76.5844 73.6558 78.6515C73.6558 82.5644 76.8304 85.739 80.7187 85.739C81.7276 85.739 82.5644 84.9023 82.5644 83.8933C82.5644 82.8844 81.7276 82.0476 80.7187 82.0476C78.8483 82.0476 77.3472 80.5219 77.3472 78.6762C77.3472 76.8058 78.873 75.3047 80.7187 75.3047C81.7276 75.3047 82.5644 74.468 82.5644 73.459C82.5644 72.45 81.7276 71.6133 80.7187 71.6133C78.8483 71.6133 77.3472 70.0875 77.3472 68.2418C77.3472 66.3715 78.873 64.8703 80.7187 64.8703C81.7276 64.8703 82.5644 64.0336 82.5644 63.0246C82.5644 62.0156 81.7276 61.1789 80.7187 61.1789C78.8483 61.1789 77.3472 59.6531 77.3472 57.8074C77.3472 55.9125 78.8483 54.3867 80.7187 54.3867Z" fill="#2FB898"/>
<path d="M65.8548 59.6285C66.8638 59.6285 67.7005 58.7918 67.7005 57.7828C67.7005 56.7738 66.8638 55.9371 65.8548 55.9371C63.9845 55.9371 62.4833 54.4113 62.4833 52.5656C62.4833 50.7199 64.0091 49.1942 65.8548 49.1942C66.8638 49.1942 67.7005 48.3574 67.7005 47.3484C67.7005 46.3395 66.8638 45.5027 65.8548 45.5027C61.9419 45.5027 58.7919 48.6774 58.7919 52.5656C58.7919 54.6328 59.6778 56.5031 61.1052 57.7828C59.6778 59.0871 58.7919 60.9328 58.7919 63C58.7919 65.0672 59.6778 66.9375 61.1052 68.2172C59.6778 69.5215 58.7919 71.3672 58.7919 73.4344C58.7919 77.3473 61.9665 80.4973 65.8548 80.4973C66.8638 80.4973 67.7005 79.6606 67.7005 78.6516C67.7005 77.6426 66.8638 76.8059 65.8548 76.8059C63.9845 76.8059 62.4833 75.2801 62.4833 73.4344C62.4833 71.5641 64.0091 70.0629 65.8548 70.0629C66.8638 70.0629 67.7005 69.2262 67.7005 68.2172C67.7005 67.2082 66.8638 66.3715 65.8548 66.3715C63.9845 66.3715 62.4833 64.8457 62.4833 63C62.4833 61.1297 64.0091 59.6285 65.8548 59.6285Z" fill="#2FB898"/>
<path d="M51.0152 64.8457C52.0241 64.8457 52.8609 64.009 52.8609 63C52.8609 61.991 52.0241 61.1543 51.0152 61.1543C49.1448 61.1543 47.6437 59.6285 47.6437 57.7828C47.6437 55.9125 49.1695 54.4113 51.0152 54.4113C52.0241 54.4113 52.8609 53.5746 52.8609 52.5656C52.8609 51.5566 52.0241 50.7199 51.0152 50.7199C47.1023 50.7199 43.9523 53.8945 43.9523 57.7828C43.9523 59.85 44.8382 61.7203 46.2656 63C44.8382 64.3043 43.9523 66.15 43.9523 68.2172C43.9523 72.1301 47.1269 75.3047 51.0152 75.3047C52.0241 75.3047 52.8609 74.468 52.8609 73.459C52.8609 72.45 52.0241 71.6133 51.0152 71.6133C49.1448 71.6133 47.6437 70.0875 47.6437 68.2418C47.6437 66.3715 49.1448 64.8457 51.0152 64.8457Z" fill="#2FB898"/>
<path d="M125.926 67.159C125.902 67.0851 125.877 67.0113 125.852 66.9129C125.655 66.3715 125.262 65.9039 124.77 65.6086C124.573 65.4855 124.376 65.3871 124.179 65.2641C122.899 64.5012 122.087 63.9351 121.57 63.566C121.989 62.8031 122.825 61.6465 124.45 60.5637C124.548 60.4898 124.671 60.416 124.794 60.3422C124.819 60.3422 124.819 60.3176 124.843 60.3176C124.893 60.293 124.942 60.2437 124.991 60.2191C125.016 60.1945 125.016 60.1945 125.04 60.1699C125.089 60.1207 125.139 60.0961 125.188 60.0469L125.212 60.0223C125.902 59.3578 126.148 58.3242 125.828 57.4137C125.778 57.266 125.705 57.1184 125.606 56.9707C125.483 56.7738 125.385 56.6016 125.262 56.4047C125.237 56.3801 125.212 56.3308 125.188 56.3062C122.432 51.8766 117.707 45.798 110.373 40.7039C103.778 36.1266 96.2718 33.1734 87.9539 31.8691C80.9648 25.5445 68.8324 18.3832 50.0308 19.0969C48.4558 19.1461 47.0285 19.9336 46.1179 21.2379C45.2074 22.5422 44.9613 24.1418 45.4535 25.643L49.8093 39.0797C44.7398 41.7867 40.1871 44.8629 36.3726 47.7176C35.5605 48.3328 35.3882 49.4894 36.0035 50.3015C36.6187 51.1137 37.7754 51.2859 38.5875 50.6707C46.0933 45.0105 56.6507 38.5137 68.0695 35.9297C68.0941 35.9297 68.1433 35.9051 68.1679 35.9051C68.5863 35.8066 68.98 35.7328 69.3984 35.6344C69.4722 35.6098 69.5707 35.6098 69.6445 35.5851C70.0136 35.5113 70.3828 35.4375 70.7519 35.3883C70.875 35.3637 71.0226 35.3391 71.1457 35.3144C71.4902 35.2652 71.8101 35.216 72.1547 35.1668C72.3269 35.1422 72.4992 35.1176 72.6961 35.093C72.9914 35.0683 73.2867 35.0191 73.582 34.9945C73.8035 34.9699 74.0496 34.9453 74.2711 34.9207C74.5172 34.8961 74.7633 34.8715 74.9847 34.8469C75.3047 34.8223 75.6246 34.7976 75.9445 34.7976C76.0922 34.7976 76.2398 34.773 76.4121 34.773C76.9043 34.7484 77.3718 34.7484 77.864 34.7484C78.2578 34.7484 78.6269 34.7484 79.0207 34.7484C81.6785 34.7976 84.3117 35.0191 86.8465 35.3883C88.8398 35.6836 90.784 36.0773 92.6789 36.5695C88.9875 43.7062 86.8957 53.1562 86.8957 62.9508C86.8957 65.018 86.9941 67.0851 87.1664 69.1031C87.2648 70.1121 88.1507 70.875 89.1843 70.7766C90.1933 70.6781 90.9562 69.7922 90.8578 68.7586C90.6855 66.8391 90.6117 64.8949 90.6117 62.9262C90.6117 53.4269 92.6789 44.3215 96.3211 37.6277C109.192 42.0328 116.944 50.5969 120.98 56.5769C121.029 56.6508 121.078 56.7246 121.127 56.7984C121.226 56.9461 121.324 57.0691 121.398 57.2168C121.496 57.3891 121.619 57.5367 121.718 57.709C121.743 57.7582 121.792 57.8074 121.816 57.8566C121.669 57.9797 121.496 58.0781 121.349 58.2012C119.134 59.973 118.199 61.7941 117.805 62.8277C117.657 63.2215 117.608 63.6398 117.633 64.0582C117.682 64.6242 117.903 65.141 118.273 65.584C118.346 65.6824 118.445 65.7809 118.543 65.8793C118.765 66.0762 119.036 66.2976 119.331 66.5191C119.971 67.0113 120.807 67.5527 121.792 68.1433C121.767 68.1926 121.718 68.2418 121.693 68.291C121.595 68.4633 121.496 68.6109 121.373 68.7832C121.275 68.9062 121.201 69.0539 121.103 69.2016C121.053 69.2754 121.004 69.3492 120.955 69.423C116.895 75.4031 109.167 83.918 96.3457 88.3476C94.5738 85.1238 93.1465 81.2601 92.1621 77.0519C91.9406 76.0676 90.9316 75.4277 89.9472 75.6738C88.9629 75.8953 88.323 76.9043 88.5691 77.8887C89.5535 82.1215 90.9808 86.059 92.7527 89.4305C90.8086 89.9473 88.7906 90.341 86.7234 90.6609C86.7234 90.6609 86.7234 90.6609 86.6988 90.6609C84.2379 91.0301 81.6539 91.2269 79.0453 91.2762C79.0207 91.2762 78.9961 91.2762 78.9715 91.2762C78.6023 91.2762 78.2332 91.2762 77.8394 91.2762C77.3964 91.2762 76.9535 91.2762 76.5105 91.2515C76.4367 91.2515 76.3382 91.2515 76.2644 91.2515C75.8214 91.2269 75.3539 91.2023 74.9109 91.1777H74.8863C67.9464 90.6855 60.539 88.4215 52.8117 84.4594C52.7871 84.4594 52.7625 84.4348 52.7625 84.4348C50.4492 83.2535 48.1113 81.9 45.7488 80.3988C36.4218 74.4926 29.1129 67.7004 25.5937 64.1566L25.5691 64.132C24.9539 63.5168 24.9785 62.5324 25.5691 61.9418L25.5937 61.9172C26.9472 60.5637 29.1375 58.4473 31.9429 56.0109C32.7058 55.3465 32.8043 54.1652 32.1398 53.4023C31.4754 52.6394 30.2941 52.541 29.5312 53.2055C27.3656 55.1004 25.5199 56.7984 24.1664 58.1273C21.1886 55.8387 17.2265 53.0332 13.4613 50.966C7.40739 47.6684 3.37145 47.2008 1.08278 49.5141C-1.05824 51.6797 0.369107 55.7156 1.64879 58.5703C2.43629 60.3668 3.34684 62.0156 3.91286 63C3.34684 63.9844 2.43629 65.6332 1.64879 67.4297C0.393716 70.2844 -1.05824 74.3203 1.08278 76.4859C2.04254 77.4457 3.27301 77.9379 4.84801 77.9379C7.06286 77.9379 9.91754 76.9781 13.4613 75.034C17.2511 72.9668 21.1886 70.1613 24.1664 67.8726C28.1285 71.7117 35.0929 77.9625 43.8047 83.475C45.798 84.7547 47.7914 85.9113 49.7601 86.9695L45.4535 100.308C44.9613 101.809 45.2074 103.409 46.1179 104.713C47.0285 106.017 48.4558 106.78 50.0308 106.854C50.9168 106.879 51.8027 106.903 52.6394 106.903C69.8414 106.903 81.1617 100.185 87.7816 94.2293C96.1734 92.9496 103.753 89.9719 110.398 85.3207C117.707 80.2266 122.432 74.1234 125.188 69.6937C125.212 69.6691 125.237 69.6199 125.262 69.5953C125.385 69.3984 125.508 69.2016 125.606 69.0293C126 68.4879 126.098 67.8234 125.926 67.159ZM79.7097 31.1308C79.6113 31.1308 79.5375 31.1308 79.439 31.1308C78.9222 31.1308 78.43 31.1062 77.9133 31.1062C77.7656 31.1062 77.6425 31.1062 77.4949 31.1062C77.1257 31.1062 76.7812 31.1062 76.4121 31.1308C76.2644 31.1308 76.1414 31.1555 75.9937 31.1555C75.6246 31.1801 75.2554 31.1801 74.9109 31.2047C74.8617 31.2047 74.8371 31.2047 74.7879 31.2047C67.9218 31.6969 60.6621 33.7394 53.1562 37.357L48.9972 24.4863C48.8742 24.0926 48.9234 23.6742 49.1695 23.3297C49.4156 22.9851 49.7847 22.7883 50.2031 22.7637C51.0398 22.7391 51.8519 22.7144 52.664 22.7144C65.5347 22.7144 74.8371 26.7012 81.1863 31.1555C80.6941 31.1555 80.2019 31.1308 79.7097 31.1308ZM3.7652 73.9758C3.71598 73.8281 3.39606 72.573 5.19254 68.6601C6.29997 66.1992 7.65348 64.0582 7.65348 64.0336C8.02262 63.443 8.02262 62.6801 7.65348 62.0894C7.62887 62.0648 6.32458 59.9484 5.19254 57.5121C3.37145 53.55 3.69137 52.2949 3.74059 52.1473C4.45426 51.5074 6.93981 51.6797 11.6894 54.2637C15.2332 56.2078 18.9738 58.8656 21.8531 61.0559C21.8531 61.0559 21.8531 61.0558 21.8531 61.0805C21.8039 61.1789 21.7793 61.2773 21.7547 61.3758C21.73 61.4496 21.7054 61.4988 21.6808 61.5726C21.6562 61.6711 21.6316 61.7695 21.607 61.868C21.5824 61.9418 21.5824 61.991 21.5578 62.0648C21.5332 62.1633 21.5332 62.2863 21.5086 62.3848C21.5086 62.434 21.484 62.5078 21.484 62.557C21.4593 62.7047 21.4593 62.8523 21.4593 63C21.4593 63.0738 21.4593 63.123 21.4593 63.1969C21.4593 63.3199 21.4593 63.4676 21.484 63.5906C21.484 63.6644 21.5086 63.7383 21.5086 63.8121C21.5332 63.9105 21.5332 64.009 21.5578 64.1074C21.5824 64.1812 21.5824 64.2551 21.607 64.3289C21.6316 64.4273 21.6562 64.5012 21.6808 64.5996C21.7054 64.6734 21.73 64.7473 21.7547 64.8211C21.7793 64.9195 21.8039 64.9934 21.8531 65.0918C21.8531 65.0918 21.8531 65.0918 21.8531 65.1164C10.7297 73.582 4.97106 75.1078 3.7652 73.9758ZM50.2031 103.212C49.7847 103.187 49.4156 102.99 49.1695 102.646C48.9234 102.301 48.8742 101.883 48.9972 101.489L53.1316 88.7168C60.1453 92.0883 66.9375 94.1308 73.4343 94.7707C73.459 94.7707 73.4836 94.7707 73.5328 94.7707C74.4679 94.8691 75.3785 94.9183 76.3136 94.9676C76.4121 94.9676 76.5105 94.9676 76.6089 94.9676C77.0519 94.9922 77.4949 94.9922 77.9379 94.9922C78.43 94.9922 78.8976 94.9922 79.3652 94.9676C79.4636 94.9676 79.5621 94.9676 79.6605 94.9676C80.1035 94.9676 80.5465 94.943 80.9894 94.9184C81.014 94.9184 81.0386 94.9184 81.0386 94.9184C74.2711 99.5941 64.255 103.753 50.2031 103.212Z" fill="#2FB898"/>
<path d="M101.489 43.9769C98.1423 43.9769 95.4106 46.7086 95.4106 50.0554C95.4106 53.4023 98.1423 56.134 101.489 56.134C104.836 56.134 107.568 53.4023 107.568 50.0554C107.568 46.7086 104.836 43.9769 101.489 43.9769ZM101.489 52.4426C100.185 52.4426 99.1021 51.3844 99.1021 50.0554C99.1021 48.7265 100.16 47.6683 101.489 47.6683C102.818 47.6683 103.876 48.7265 103.876 50.0554C103.876 51.3844 102.793 52.4426 101.489 52.4426Z" fill="#2FB898"/>
</g>
<defs>
<clipPath id="clip0">
<rect width="126" height="126" fill="white"/>
</clipPath>
</defs>
</svg>
