<svg width="126" height="126" viewBox="0 0 126 126" fill="none" xmlns="http://www.w3.org/2000/svg">
<path d="M28.0547 66.9867C28.0547 66.9867 48.6527 51.0645 74.2957 50.8676C99.9387 50.6707 118.346 72.7945 118.346 72.7945L101.292 88.1016L85.5668 102.35C85.5668 102.35 69.3492 109.782 62.3602 103.729C55.3957 97.6992 50.3508 95.4844 45.0352 86.9449C39.7195 78.4055 36.6187 72.9668 32.3367 69.9644C28.0547 66.9621 28.0547 66.9867 28.0547 66.9867Z" fill="#B0DCD3"/>
<path d="M10.0899 63.0492C8.36725 61.0066 6.6446 59.1609 5.14342 57.1184C4.08522 55.6664 3.05163 54.0422 2.60866 52.3195C2.28874 51.1137 2.58405 49.4402 3.2485 48.3574C4.13444 46.9055 5.93092 46.6348 7.48131 47.3484C9.30241 48.1851 11.0497 49.2434 12.6739 50.4C15.2333 52.1965 17.6204 54.2144 20.1798 56.0355C22.4192 57.6351 24.8801 57.8566 27.3903 56.5523C29.3098 55.568 31.254 54.6328 33.0505 53.4516C33.8626 52.9348 34.4778 51.975 34.9946 51.0891C40.138 42.1066 45.7243 33.4441 53.5747 26.5289C59.1118 21.6562 65.2887 18.1863 72.9669 18.4324C79.0454 18.6293 84.361 21.0164 89.2583 24.4371C94.5985 28.1777 99.0036 32.9027 103.064 37.9476C103.753 38.809 104.541 39.6211 105.427 40.2609C112.022 45.0598 117.707 50.7937 122.702 57.2168C124.376 59.3578 124.179 60.1453 121.718 61.3758C120.857 61.8187 119.995 62.2617 118.716 62.9016C119.995 63.566 120.931 64.0582 121.89 64.5258C124.154 65.6578 124.474 66.8637 122.899 68.8078C117.83 75.1078 112.194 80.8172 105.648 85.616C104.664 86.3297 103.802 87.1664 103.04 88.1262C98.5606 93.7125 93.7372 98.9051 87.6341 102.744C76.7813 109.586 65.9778 109.069 55.8141 101.194C48.3575 95.4105 42.968 87.9047 38.0462 80.0051C37.2833 78.7746 36.4219 77.5933 35.8559 76.2891C33.7641 71.4902 29.3098 69.9644 24.8801 68.6601C23.6743 68.3156 21.8778 68.9555 20.6719 69.6937C17.9157 71.4164 15.3809 73.5082 12.7477 75.4031C11.3204 76.4367 9.89303 77.4949 8.34264 78.2824C6.71842 79.1191 4.92194 79.316 3.39616 77.9133C1.79655 76.4613 1.77194 74.5664 2.63327 72.8684C3.7653 70.6781 5.19264 68.6355 6.6446 66.6668C7.65358 65.4855 8.88405 64.3781 10.0899 63.0492ZM6.66921 50.7199C6.66921 50.7199 5.11881 51.3351 7.35827 53.7223C9.49928 56.0109 11.4188 58.4965 13.5352 60.7851C15.1102 62.4832 15.1102 63.1476 13.5106 64.8457C11.3696 67.1344 9.25319 69.5215 7.11217 71.8101C6.49694 72.4746 4.99577 73.7051 5.83249 74.4926C6.6446 75.3293 8.19499 73.9266 8.83483 73.4836C11.8618 71.318 14.7903 69.0293 17.8419 66.9129C21.484 64.4027 25.3477 64.009 29.2852 66.1992C32.5829 68.0449 35.9051 69.866 39.0551 71.9578C45.8719 76.4613 52.418 81.334 59.3579 85.6406C69.743 92.1129 80.768 93.6387 92.2606 88.643C92.8758 88.3723 93.4665 88.0523 93.7618 87.9047C90.8825 83.6473 88.1508 79.5867 85.1731 75.1816C83.795 76.2398 82.1216 77.2734 80.7926 78.6269C78.2579 81.2601 76.1415 81.8754 73.1637 80.448C69.177 78.5531 66.7653 75.157 67.3805 72.0316C67.602 70.9242 68.1188 69.743 68.8817 68.9309C69.8415 67.9219 71.0719 66.9375 72.3762 66.5437C75.2309 65.6332 78.1594 64.9441 81.1126 64.4766C82.8598 64.2058 83.6719 63.8121 83.6966 61.7941C83.7212 59.284 83.9426 56.6262 84.7794 54.2883C86.1329 50.5723 88.0032 47.0777 89.7751 43.534C90.3411 42.4266 91.4731 41.959 92.5805 42.7465C93.688 43.534 93.5403 44.6414 92.8266 45.6996C92.4575 46.241 92.0883 46.7824 91.7438 47.3484C84.484 59.0871 86.4282 74.6402 96.3458 84.2379C97.6008 85.4437 98.4868 85.7883 100.136 84.7301C107.125 80.2019 113.031 74.5664 118.371 68.2418C118.568 68.0203 118.642 67.7004 118.814 67.3066C117.165 66.4945 115.59 65.8547 114.163 64.9934C113.474 64.575 112.539 63.6891 112.588 63.0984C112.662 62.3355 113.499 61.4742 114.237 61.0066C115.615 60.1207 117.165 59.4809 118.839 58.6441C113.622 52.1719 108.109 46.4625 101.538 41.8605C89.0614 33.0996 75.8462 31.7707 62.4094 39.0059C55.0759 42.9434 48.4067 48.0621 41.3438 52.5164C37.0618 55.2234 32.6567 57.7828 28.2024 60.1945C25.2985 61.7695 22.1731 61.4496 19.3923 59.7516C16.7837 58.1766 14.3473 56.257 11.8618 54.5098C10.1391 53.2055 7.9735 51.6551 6.66921 50.7199ZM41.8606 78.7254C47.2993 87.2894 52.9594 95.1398 61.4251 100.431C67.479 104.196 73.902 104.787 80.5465 102.129C85.813 100.012 90.1196 96.5672 93.9833 92.5066C89.9473 93.4172 86.0837 94.623 82.0969 95.1398C73.6559 96.2473 65.904 93.7617 58.718 89.5289C53.1317 86.2312 47.7669 82.5152 41.8606 78.7254ZM42.3528 47.0285C42.8204 46.7332 43.288 46.4379 43.7555 46.1426C48.7758 42.8695 53.6731 39.375 58.8411 36.348C66.9622 31.5984 75.6739 29.2605 85.1239 31.2539C88.077 31.8691 90.9809 32.8535 94.254 33.7641C89.652 29.1129 84.9024 25.3476 78.9223 23.3543C73.3606 21.5086 67.8973 21.8285 62.8524 24.7816C59.727 26.6027 56.7985 28.8668 54.1161 31.3277C49.2926 35.782 45.5274 41.1715 42.3528 47.0285ZM82.4661 68.2172C79.9313 68.7586 77.3719 69.2016 74.8864 69.9152C73.213 70.3828 71.2196 71.1211 71.1704 73.1637C71.1212 75.3047 73.1391 76.2152 74.7387 77.1504C75.7969 77.7656 76.6829 77.4457 77.6919 76.5105C79.4637 74.8863 81.4325 73.459 83.4751 72.2039C84.5087 71.5641 84.7055 71.0473 84.4594 69.9891C84.2133 68.857 83.795 68.1434 82.4661 68.2172Z" fill="#2FB898"/>
<path d="M101.415 51.6551C98.093 51.6058 95.4106 54.2391 95.4352 57.5367C95.4352 60.7359 98.093 63.3691 101.292 63.3938C104.491 63.4184 107.125 60.8098 107.174 57.5859C107.199 54.3867 104.59 51.7043 101.415 51.6551ZM101.711 59.9977C99.988 60.2684 98.536 58.8164 98.8067 57.0937C98.979 56.0602 99.8157 55.2234 100.849 55.0512C102.572 54.7805 104.024 56.2324 103.753 57.9551C103.606 58.9887 102.769 59.8254 101.711 59.9977Z" fill="#2FB898"/>
</svg>
