<svg width="126" height="126" viewBox="0 0 126 126" fill="none" xmlns="http://www.w3.org/2000/svg">
<g clip-path="url(#clip0)">
<path d="M53.9437 115.886V85.9606C53.9437 85.9606 62.7785 69.9891 72.1546 85.9606V109.438C72.1546 119.823 80.7925 120.069 85.739 114.975C87.0187 113.646 88.3476 111.85 89.6273 109.487C97.9699 94.1555 107.641 67.4051 103.384 52.6887C99.1019 37.9723 94.5492 15.5039 63.0738 13.166C31.5984 10.8282 22.7144 48.4067 22.7144 48.4067C22.7144 48.4067 17.2265 70.7766 31.0077 98.3637C31.0077 98.3637 34.773 110.57 44.1492 117.116C51.9995 122.579 53.4515 118.519 53.9437 115.886Z" fill="#B0DCD3"/>
<path d="M110.028 47.9883C110.078 48.9727 110.89 49.7356 111.874 49.7356C111.899 49.7356 111.948 49.7356 111.973 49.7356C112.982 49.6863 113.769 48.8004 113.72 47.7914C112.366 22.7637 92.5065 2.21485 67.528 1.1038e-05C66.5191 -0.0984265 65.6085 0.664464 65.5347 1.67345C65.4362 2.68243 66.1991 3.59298 67.2081 3.66681C90.3655 5.734 108.773 24.7816 110.028 47.9883Z" fill="#2FB898"/>
<path d="M111.973 54.6574C110.964 54.6328 110.102 55.4203 110.053 56.4293C109.536 69.9152 105.993 103.187 84.1887 120.93C81.777 122.899 77.9871 122.776 75.6738 120.192C78.2578 120.734 80.8418 120.02 82.7613 118.42C99.8648 103.999 105.525 77.6426 105.525 55.1742C105.525 31.1062 86.5758 11.2219 63.0738 11.2219C39.6211 11.2219 20.6227 31.057 20.6227 55.1742C20.6227 77.6426 26.2828 103.999 43.3863 118.42C45.2812 120.02 47.8898 120.734 50.4738 120.192C48.1852 122.752 44.3953 122.899 41.959 120.93C22.5914 105.205 15.9961 75.477 15.9961 50.5477C15.9961 26.4059 34.8469 5.80781 58.9148 3.69141C59.9238 3.59297 60.6867 2.70703 60.5883 1.69805C60.4898 0.689061 59.6039 -0.0738293 58.5949 0.0246082C46.0195 1.10742 34.3793 6.89062 25.7414 16.2422C17.0789 25.643 12.3047 37.8246 12.3047 50.5477C12.3047 76.6828 19.1461 107.149 39.5965 123.81C45.9211 128.953 55.7156 124.474 55.7156 116.082V87.6586C55.7156 83.598 59.0133 80.3004 63.0738 80.3004C67.1344 80.3004 70.432 83.598 70.432 87.6586V116.082C70.432 124.45 80.202 128.978 86.5512 123.81C109.512 105.107 113.252 70.5551 113.794 56.577C113.794 55.568 112.982 54.7066 111.973 54.6574ZM63.0492 76.609C61.991 76.609 60.859 76.7566 59.8254 77.1012C53.55 71.1949 56.6508 56.257 63.0492 56.257C66.716 56.257 69.7184 61.4496 69.7184 67.4051C69.7184 70.8504 68.6602 74.8371 66.273 77.1012C65.2641 76.7812 64.132 76.609 63.0492 76.609ZM51.9996 106.755C46.0195 105.82 40.1625 104.122 34.6254 101.711C31.8445 96.641 29.802 91.2516 28.3008 85.9852C35.5605 90.3902 43.6324 93.3926 51.9996 94.7707V106.755ZM25.4461 45.3797C32.8289 53.6977 42.648 59.2594 53.55 61.3512C52.2703 65.5102 52.3687 70.4812 53.9437 74.6156C42.7957 72.7453 32.3859 67.4297 24.2895 59.4316C24.1418 53.5254 24.4125 49.6617 25.4461 45.3797ZM31.6723 31.5738C38.9566 39.7441 49.0711 44.7152 59.973 45.5273C59.0871 49.3172 57.7582 53.0086 55.9863 56.4785C55.6664 56.9215 55.3465 57.3645 55.0758 57.8566C43.9031 55.9371 33.9117 50.0555 26.7504 41.1469C27.9562 37.7262 29.6297 34.5023 31.6723 31.5738ZM64.8949 14.9625C71.0473 15.2578 76.8059 17.0543 81.8754 20.0074C77.0027 23.8219 71.0965 26.0613 64.8949 26.4305V14.9625ZM61.2035 26.4305C55.002 26.0613 49.0957 23.8219 44.223 20.0074C49.2926 17.0543 55.0758 15.2824 61.2035 14.9625V26.4305ZM94.4262 31.5738C96.4688 34.5023 98.1422 37.7262 99.3727 41.1469C92.2113 50.0309 82.2199 55.9125 71.0473 57.8566C70.752 57.3645 70.4566 56.8969 70.1367 56.4539C68.3648 52.984 67.0113 49.2926 66.15 45.5027C77.0519 44.7398 87.1418 39.7441 94.4262 31.5738ZM64.452 52.6887C63.5168 52.5164 62.6309 52.5164 61.6711 52.6887C62.1879 51.2859 62.6555 49.834 63.0492 48.382C63.443 49.834 63.9105 51.2859 64.452 52.6887ZM72.5484 61.3512C83.4504 59.284 93.2449 53.6977 100.652 45.3797C101.809 50.1785 101.957 54.3375 101.784 59.407C93.6879 67.4297 83.3027 72.7453 72.1301 74.591C72.9422 72.45 73.4098 69.9644 73.4098 67.3805C73.4344 65.2394 73.1144 63.1969 72.5484 61.3512ZM91.4731 101.711C85.9113 104.147 80.0789 105.82 74.0988 106.755V94.7461C82.466 93.368 90.5379 90.3656 97.7977 85.9605C96.2965 91.2269 94.2785 96.641 91.4731 101.711ZM80.3742 115.615C78.627 117.091 75.9199 117.116 74.0988 115.344V110.496C78.9223 109.782 83.6227 108.601 88.2 106.977C85.9852 110.127 83.3766 113.055 80.3742 115.615ZM92.1375 28.5961C85.3699 36.4711 75.7723 41.2207 65.4363 41.8605C65.0918 39.5227 64.8949 37.1355 64.8949 34.7484V30.1219C72.3516 29.7281 79.4391 26.9227 85.1484 22.1238C87.7324 23.9941 90.0703 26.1598 92.1375 28.5961ZM40.95 22.1238C46.6594 26.9227 53.7469 29.7281 61.2035 30.1219V34.7484C61.2035 37.1355 61.0312 39.498 60.6621 41.8605C50.3262 41.2207 40.7531 36.4711 33.9609 28.5961C36.0527 26.1598 38.3906 23.9941 40.95 22.1238ZM45.7242 115.615C42.7219 113.08 40.1133 110.152 37.8984 106.977C42.4758 108.601 47.2008 109.782 51.9996 110.496V115.344C50.2031 117.091 47.4961 117.091 45.7242 115.615ZM51.9996 87.6586V91.0055C43.0664 89.4305 34.4531 85.8867 26.9719 80.6941C25.6184 74.6402 24.9293 69.0293 24.5848 64.698C33.4934 72.4008 44.543 77.298 56.2324 78.6516C56.2816 78.7254 56.3309 78.7746 56.3801 78.8484C53.7469 80.8664 51.9996 84.0656 51.9996 87.6586ZM69.6938 78.8484C69.743 78.7746 69.7922 78.7254 69.8414 78.6516C81.5309 77.298 92.5805 72.4008 101.489 64.698C101.145 69.0293 100.48 74.6402 99.102 80.6941C91.6207 85.8867 83.0074 89.4305 74.0742 91.0055V87.6586C74.0988 84.0656 72.3762 80.8664 69.6938 78.8484Z" fill="#2FB898"/>
</g>
<defs>
<clipPath id="clip0">
<rect width="126" height="126" fill="white"/>
</clipPath>
</defs>
</svg>
