<svg width="126" height="126" viewBox="0 0 126 126" fill="none" xmlns="http://www.w3.org/2000/svg">
<path d="M11.2466 65.8793C11.2466 65.8793 30.5649 58.0289 56.5278 58.3242C82.4907 58.6195 98.1915 68.7832 98.1915 68.7832C98.1915 68.7832 78.2087 77.8641 54.7067 77.8641C31.2048 77.8641 11.2466 69.0293 11.2466 69.0293V65.8793Z" fill="#B0DCD3"/>
<path d="M118.125 49.2187C112.563 49.2187 107.223 50.9168 102.695 54.1652L96.3703 58.6933C94.377 57.709 92.3344 56.7738 90.2672 55.9371C87.4863 47.939 80.5711 42.3035 72.4254 41.5652L49.4156 39.4488C42.5742 38.809 35.8805 41.7621 31.5 47.2746L27.4641 52.2457C21.3855 53.8453 15.4547 56.0109 9.84375 58.8164L9.45 59.0133C7.48125 58.8164 5.90625 57.1676 5.90625 55.125V53.1562H1.96875V55.125C1.96875 58.7918 4.47891 61.8433 7.875 62.7293V63H1.96875V66.9375H7.875V67.2082C4.47891 68.0941 1.96875 71.1457 1.96875 74.8125V76.7812H5.90625V74.8125C5.90625 72.7699 7.48125 71.1211 9.45 70.9242L9.84375 71.1211C15.1594 73.7789 20.7457 75.8707 26.4797 77.4457L27.6117 80.3004C29.1621 84.164 32.8289 86.6496 36.9879 86.6496C40.3594 86.6496 43.5094 84.9762 45.3797 82.1461L46.4133 80.6203C47.7914 80.6941 49.1695 80.7433 50.5477 80.7433H54.3129C58.152 84.5578 63.3691 86.625 68.6848 86.625C70.3336 86.625 71.9578 86.4281 73.582 86.0344L77.9379 84.9515C84.0164 83.4258 89.0367 79.1683 91.5961 73.459C93.1957 72.7699 94.7953 72.0562 96.3457 71.2687L102.67 75.7969C107.198 79.0453 112.539 80.7433 118.1 80.7433C121.349 80.7433 124.007 78.0855 124.007 74.8371V55.1496C124.031 51.8765 121.373 49.2187 118.125 49.2187ZM85.05 53.993C82.1215 53.0086 79.1437 52.1965 76.1414 51.5074L77.8887 49.4156C78.2086 49.0219 78.8484 48.5051 79.4391 48.0375C81.7031 49.514 83.6227 51.5566 85.05 53.993ZM75.477 46.2164C75.2309 46.4379 75.0094 46.6594 74.8371 46.9055L71.7363 50.6215C68.857 50.1047 65.9285 49.7355 63 49.514L64.0582 48.2344C64.9687 47.1515 66.8637 45.7734 67.7988 45.0844L72.0316 45.4781C73.2621 45.6012 74.3941 45.8719 75.477 46.2164ZM54.8543 43.9031L62.1633 44.5676C61.7449 44.9613 61.3758 45.3305 61.0559 45.6996L58.0781 49.2926C57.3891 49.268 56.7246 49.2187 56.0355 49.2187H50.523C50.1539 49.2187 49.7848 49.2433 49.4156 49.2433L50.2523 48.2344C51.3352 46.9793 53.2301 45.1336 54.8543 43.9031ZM34.5762 49.7355C38.1199 45.2566 43.5586 42.8695 49.0465 43.3617L49.4156 43.3863C48.5789 44.1984 47.7914 45.0105 47.2254 45.6996L44.1246 49.4648C40.6301 49.7109 37.1355 50.1785 33.6902 50.8183L34.5762 49.7355ZM36.9879 82.6875C34.4531 82.6875 32.2137 81.1617 31.2785 78.8238L31.1801 78.6023C34.6992 79.3652 38.243 79.9312 41.8359 80.2758C40.6793 81.7769 38.9074 82.6875 36.9879 82.6875ZM28.3746 73.8527C29.7773 72.5238 30.8848 70.9734 31.7461 69.2508L36.7172 71.7363C38.1445 72.45 39.7441 72.8191 41.3191 72.8191C45.6504 72.8191 49.1941 69.2754 49.1941 64.9441C49.1941 60.6129 45.6504 57.0691 41.3191 57.0691C39.7195 57.0691 38.1445 57.4383 36.7172 58.1519L33.4441 59.7762V59.0625H29.5066V62.0648C29.5066 66.3469 27.2672 70.2598 23.6742 72.4746C19.6137 71.1457 15.627 69.5707 11.7879 67.6758V62.2371C23.7973 56.3062 37.1848 53.1562 50.5477 53.1562H56.0602C70.5797 53.1562 85.0008 56.823 97.7484 63.7875C98.1914 64.0336 98.4621 64.4765 98.4621 64.9687C98.4621 65.4609 98.1914 65.9039 97.7484 66.15C84.9762 73.1144 70.5797 76.7812 56.0602 76.7812H50.5477C43.0664 76.7812 35.6098 75.7723 28.3746 73.8527ZM33.3211 64.3043L38.4891 61.7203C39.375 61.2773 40.3594 61.0558 41.3438 61.0558C43.5094 61.0558 45.2812 62.8277 45.2812 64.9933C45.2812 67.159 43.5094 68.9308 41.3438 68.9308C40.3594 68.9308 39.375 68.7094 38.4891 68.2664L33.0504 65.5594C33.1488 65.1164 33.2719 64.698 33.3211 64.3043ZM60.6621 80.5711C63.8859 80.3988 67.1098 80.0543 70.2844 79.5375L72.9914 82.0969L72.6469 82.1953C68.5617 83.2043 64.2551 82.5644 60.6621 80.5711ZM77.5195 80.9402L75.0832 78.6516C78.627 77.8887 82.1215 76.9289 85.5422 75.7476C83.4504 78.2086 80.6695 80.0297 77.5195 80.9402ZM120.094 74.8125C120.094 75.8953 119.208 76.7812 118.125 76.7812C113.375 76.7812 108.847 75.3293 104.984 72.573L100.209 69.1769C100.283 69.1031 100.382 69.0539 100.455 68.9801L115.664 72.7699L116.624 68.9555L102.301 65.3871C102.326 65.2394 102.35 65.1164 102.35 64.9687C102.35 64.8211 102.301 64.698 102.301 64.5504L116.624 60.982L115.664 57.1676L100.455 60.9574C100.382 60.8836 100.283 60.8344 100.209 60.7605L104.984 57.3644C108.847 54.6082 113.375 53.1562 118.125 53.1562C119.208 53.1562 120.094 54.0422 120.094 55.125V74.8125Z" fill="#2FB898"/>
<path d="M24.6094 59.0625C22.9852 59.0625 21.6562 60.3914 21.6562 62.0156C21.6562 63.6398 22.9852 64.9688 24.6094 64.9688C26.2336 64.9688 27.5625 63.6398 27.5625 62.0156C27.5625 60.3914 26.2336 59.0625 24.6094 59.0625Z" fill="#2FB898"/>
</svg>
