<svg width="126" height="126" viewBox="0 0 126 126" fill="none" xmlns="http://www.w3.org/2000/svg">
<g clip-path="url(#clip0)">
<path d="M84.1394 55.9371C84.1394 55.9371 65.6578 48.0375 41.7867 51.0398C23.3789 53.3531 4.67575 67.1836 9.49919 86.1574C14.5195 105.993 32.7304 105.697 32.7304 105.697C32.7304 105.697 17.0297 91.9406 21.7547 78.9222C26.4797 65.9039 44.5676 62.68 44.5676 62.68L58.3242 69.8906L84.1394 55.9371Z" fill="#B0DCD3"/>
<path d="M72.8438 50.6953C74.2029 50.6953 75.3047 49.5935 75.3047 48.2344C75.3047 46.8752 74.2029 45.7734 72.8438 45.7734C71.4846 45.7734 70.3828 46.8752 70.3828 48.2344C70.3828 49.5935 71.4846 50.6953 72.8438 50.6953Z" fill="#2FB898"/>
<path d="M111.234 16.2422H98.9298C97.5763 16.2422 96.4688 17.3496 96.4688 18.7031C96.4688 20.0566 97.5763 21.1641 98.9298 21.1641H111.234C116.673 21.1641 121.078 25.5691 121.078 31.0078C121.078 34.9945 118.691 38.4398 115.295 39.9656C115.861 38.7352 116.181 37.357 116.181 35.9297C116.181 30.491 111.776 26.0859 106.337 26.0859C104.984 26.0859 103.876 27.1934 103.876 28.5469C103.876 29.9004 104.984 31.0078 106.337 31.0078C109.044 31.0078 111.259 33.2227 111.259 35.9297C111.259 38.6367 109.044 40.8516 106.337 40.8516H104.024C103.089 40.7285 97.9946 40.0887 91.5224 39.3258C90.1688 39.1781 88.9384 40.1379 88.7907 41.4914C88.6431 42.8449 89.6028 44.0754 90.9563 44.223C93.3435 44.4937 95.5337 44.7645 97.404 44.9859C86.2067 52.8855 66.3224 65.4609 56.6263 65.4609C49.8341 65.4609 44.3216 59.9484 44.3216 53.1562C44.3216 46.3641 49.8341 40.8516 56.6263 40.8516C58.595 40.8516 62.754 41.1715 68.9802 41.7867C70.3337 41.9098 71.5395 40.9254 71.6626 39.5719C71.7856 38.2184 70.8013 37.0125 69.4477 36.8895C62.9755 36.2496 58.7919 35.9297 56.6017 35.9297H40.3595C25.4462 35.9297 16.5622 43.2879 16.5868 43.2879C5.51259 51.3352 -0.492098 64.7473 8.91574e-05 77.8641C0.689152 95.7797 13.1169 109.758 34.7977 109.758H56.6263C57.2907 109.758 57.9059 109.487 58.3735 109.044L68.2173 99.2004C68.931 98.4867 69.1278 97.4285 68.7587 96.518C68.3895 95.6074 67.479 94.9922 66.4946 94.9922H62.2618L63.9599 88.2C64.1321 87.4617 63.9845 86.6742 63.5169 86.0836C63.0493 85.493 62.3356 85.1484 61.5727 85.1484C51.5567 85.1484 41.9837 89.9227 35.979 97.9453L33.3458 101.464C27.4642 97.5023 24.0434 90.6363 24.7571 83.2043C25.7169 73.1391 34.6255 65.8055 44.6169 65.4855C47.7177 68.5125 51.8274 70.2598 56.1587 70.3828L80.2513 79.4883V87.6094C80.2513 88.9629 81.3587 90.0703 82.7122 90.0703C84.0657 90.0703 85.1731 88.9629 85.1731 87.6094V77.7656C85.1731 76.732 84.5333 75.8215 83.5735 75.4523L70.1122 70.3828H90.7841L95.1399 83.475C95.5583 84.7547 96.961 85.4684 98.2407 85.0254C99.5204 84.607 100.234 83.2043 99.7911 81.9246L94.8692 67.159C94.5247 66.15 93.5895 65.4855 92.5313 65.4855H73.0899C78.8977 62.7293 85.0009 59.1117 90.4395 55.6172C90.5626 55.6418 90.7102 55.6418 90.8333 55.6418H113.695C115.049 55.6418 116.156 54.5344 116.156 53.1809C116.156 51.8273 115.049 50.7199 113.695 50.7199H97.7731C101.071 48.4559 103.556 46.6348 104.664 45.798H111.234C119.38 45.798 126 39.1781 126 31.0324C126 22.8867 119.38 16.2422 111.234 16.2422ZM58.3489 90.2672L57.1677 94.9922H55.7895C51.4583 94.9922 47.1763 95.7797 43.1649 97.2809C47.3239 93.4172 52.6642 90.9316 58.3489 90.2672ZM55.7649 99.9141H60.5145L55.5927 104.836H44.3216C42.7958 104.836 41.27 104.664 39.8181 104.319C44.6169 101.44 50.1294 99.9141 55.7649 99.9141ZM4.94657 77.6672C4.79892 73.9758 5.2665 70.2598 6.27548 66.6422C9.67157 72.5484 14.3227 77.6426 19.9829 81.6047C19.9337 81.9738 19.8845 82.3676 19.8352 82.7367C19.6138 85.0254 19.7122 87.2648 20.1059 89.4797C15.1102 88.6184 10.2622 86.8465 5.88173 84.2625C5.34032 82.1461 5.0204 79.9313 4.94657 77.6672ZM29.0392 104.442C19.6876 103.113 12.5509 98.4867 8.51493 91.1531C12.6739 92.9496 17.1036 94.1555 21.6317 94.6969C23.2313 98.5113 25.7907 101.858 29.0392 104.442ZM21.3118 76.4859C15.7993 72.2531 11.4681 66.7652 8.61337 60.416C10.6313 56.2078 13.4122 52.4918 16.7837 49.4895C19.2446 56.1094 23.8712 61.7941 29.8759 65.5348C25.963 68.3402 22.9852 72.1301 21.3118 76.4859ZM34.8716 62.6801C28.1778 59.3824 23.0837 53.4023 20.8934 46.3148C26.5044 42.6973 33.0505 40.8516 40.3841 40.8516H44.5923C41.3931 43.977 39.3997 48.3328 39.3997 53.1562C39.3997 55.8633 40.0395 58.4965 41.2208 60.859C39.0306 61.2035 36.8895 61.8187 34.8716 62.6801Z" fill="#2FB898"/>
<path d="M80.2266 42.8203C81.5857 42.8203 82.6875 41.7185 82.6875 40.3594C82.6875 39.0002 81.5857 37.8984 80.2266 37.8984C78.8674 37.8984 77.7656 39.0002 77.7656 40.3594C77.7656 41.7185 78.8674 42.8203 80.2266 42.8203Z" fill="#2FB898"/>
</g>
<defs>
<clipPath id="clip0">
<rect width="126" height="126" fill="white"/>
</clipPath>
</defs>
</svg>
