<svg id="Capa_1" enable-background="new 0 0 511.999 511.999" height="512" viewBox="0 0 511.999 511.999" width="512" xmlns="http://www.w3.org/2000/svg"><g><path d="m503.746 312.804c-20.514-10.331-27.212-28.126-36.483-52.755-1.955-5.194-10.095-25.74-11.967-30.491-6.442-16.354-13.013-33.025-21.636-48.671-15.167-33.134-39.021-60.949-70.935-82.669-27.208-18.517-60.228-32.264-95.492-39.754-58.492-12.421-100.546 11.98-120.399 38.96-19.609 26.648-33.426 55.342-43.495 91.304l-66.997-50.972-9.104 7.055c-12.508 9.692-21.796 26.289-25.482 45.535-3.807 19.879-1.377 40.684 6.842 58.583 4.97 10.825 3.741 22.197 2.316 35.364-3.294 30.447 3.868 53.937 21.889 78.321l48.383-31.81c2.778 35.858 21.942 70.148 51.933 92.482 26.089 19.428 61.339 30.866 101.939 33.076 5.436.295 11.047.501 16.922.501 19.617 0 42.147-2.297 70.676-11.212 30.576-9.555 77.777-29.76 118.87-57.88 20.002-13.769 39.709-22.305 60.037-28.795l10.438-3.333v-38.683zm-392.852-.328c41.114 62.157 69.103 88.778 128.052 107.275 9.365 2.939 18.987 5.105 28.882 6.514-11.784.956-21.934.644-31.14.143-24.191-1.316-58.687-7.101-85.651-27.182-24.006-17.877-38.997-45.511-40.142-73.968v-12.782zm324.995 44.088c-9.212 5.185-17.913 10.082-26.884 13.992-63.831 27.824-116.519 34.553-161.078 20.571-27.815-8.728-46.154-18.64-63.298-34.211-16.729-15.194-32.797-35.996-57.312-74.194l-8.192-12.764-77.325 50.838c-3.529-10.461-2.396-20.94-1.061-33.274 1.662-15.359 3.545-32.767-4.878-51.112-10.055-21.896-5.937-45.673 2.499-59.425l82.652 62.883 9.18-11.092c28.564-34.515 94.685-76.555 138.724-88.201 21.336-5.642 43.784-6.124 64.917-1.393 21.806 4.881 40.657 15.112 54.517 29.587 18.281 19.092 28.362 44.685 39.036 71.782 1.904 4.832 9.918 25.057 11.803 30.064 8.844 23.498 17.957 47.711 41.997 63.717-17.877 6.799-32.308 14.921-45.297 22.232zm-174.888-268.754c19.629 4.169 38.421 10.471 55.61 18.586-18.157-1.329-36.938.306-55.365 5.178-37.507 9.919-87.634 38.381-123.914 68.529 8.402-24.691 19.198-45.237 33.665-64.898 14.309-19.447 45.467-36.856 90.004-27.395z"/><path d="m301.014 267-27.763 11.369c13.561 33.115 44.622 57.948 89.243 55.818l-1.927-29.938c-24.615 1.58-50.209-14.43-59.553-37.249z"/><path d="m343.676 233.685h30v30h-30z"/></g></svg>