<svg id="Capa_1" enable-background="new 0 0 511.807 511.807" height="512" viewBox="0 0 511.807 511.807" width="512" xmlns="http://www.w3.org/2000/svg"><g><path d="m511.624 15.569c.33-8.676-6.772-15.873-15.559-15.559-95.081 3.613-190.381 26.97-263.012 89.584-28.334-15.166-64.187-15.238-99.008 7.47-18.536 12.09-35.703 41.408-52.48 89.632-11.759 33.801-18.76 64.096-19.052 65.369-2.155 9.387 4.987 18.355 14.62 18.355h50.976c-6.967 30.166-10.81 61.898-11.453 94.629h-101.501c-9.9 0-17.635 9.631-14.124 20.062 19.692 58.648 66.576 106.031 126.12 125.913 9.717 3.248 19.778-4.016 19.75-14.269l-.276-101.79c51.053-1.007 102.627-9.843 150.125-28.616l48.853 48.853c5.121 5.121 13.152 5.844 19.103 1.756 2.205-1.516 54.084-37.661 62.197-85.953 2.861-17.027.101-33.322-8.196-48.593 65.039-72.977 89.237-169.974 92.917-266.843zm-49.318 123.894c-16.362 2.346-52.895 4.696-73.862-16.271-20.968-20.969-18.618-57.5-16.272-73.862 31.652-9.433 67.667-15.881 108.641-18.507-2.627 40.974-9.075 76.989-18.507 108.64zm-311.872-17.27c24.935-16.264 45.886-14.545 59.174-10.161-32.196 34.341-57.242 77.071-73.344 128.389h-39.929c11.996-44.792 33.655-104.895 54.099-118.228zm-113.023 272.856h79.215l.216 79.462c-34.566-16.701-62.747-44.893-79.431-79.462zm109.268-30.094c1.959-85.651 29.774-239.548 194.283-304.832-4.017 72.122 36.204 114.689 110.55 110.549-65.284 164.51-219.181 192.325-304.833 194.283zm210.745 19.641-31.391-31.391c27.051-13.678 49.73-29.527 69.959-47.893 9.13 29.124-15.325 59.542-38.568 79.284z"/><circle cx="428.747" cy="82.887" r="15"/></g></svg>