<?xml version="1.0" encoding="iso-8859-1"?>
<!-- Generator: Adobe Illustrator 19.0.0, SVG Export Plug-In . SVG Version: 6.00 Build 0)  -->
<svg version="1.1" id="Layer_1" xmlns="http://www.w3.org/2000/svg" xmlns:xlink="http://www.w3.org/1999/xlink" x="0px" y="0px"
	 viewBox="0 0 512 512" style="enable-background:new 0 0 512 512;" xml:space="preserve">
<g>
	<g>
		<path d="M308.699,77.439H127.344L13.166,29.606L0,61.033l78.873,33.042L0.001,127.106l13.161,31.429l94.864-39.727
			c2.718,19.26,8.969,47.578,23.346,76.061c20.117,39.853,59.611,86.25,136.081,98.802l-96.103,85.697l-91.77-97.436l-24.804,23.362
			l114.505,121.574l0.354-0.316c37.52,35.669,87.546,55.842,139.69,55.842C421.081,482.394,512,391.475,512,279.719
			C512,168.18,420.799,77.439,308.699,77.439z M325.735,112.361c65.069,6.495,119.38,49.783,141.515,108.559l-141.515,37.077
			V112.361z M162.297,180.51c-13.317-25.977-18.683-52.398-20.841-68.998h150.207V262.23
			C231.356,257.838,187.88,230.411,162.297,180.51z M309.324,448.318c-42.431,0.001-83.177-16.063-114.153-44.541l107.789-96.118
			l58.495,132.4C345.032,445.411,327.513,448.318,309.324,448.318z M392.614,426.265l-59.622-134.948l142.938-37.45
			c1.313,8.429,1.998,17.06,1.998,25.848C477.927,342.41,443.527,397.217,392.614,426.265z"/>
	</g>
</g>
<g>
	<g>
		<path d="M203.788,130.596c-7.789,0-14.11,6.286-14.11,14.102c0,7.765,6.319,14.093,14.11,14.093
			c7.79,0,14.118-6.327,14.118-14.093C217.905,136.883,211.578,130.596,203.788,130.596z"/>
	</g>
</g>
<g>
</g>
<g>
</g>
<g>
</g>
<g>
</g>
<g>
</g>
<g>
</g>
<g>
</g>
<g>
</g>
<g>
</g>
<g>
</g>
<g>
</g>
<g>
</g>
<g>
</g>
<g>
</g>
<g>
</g>
</svg>
