<svg width="538" height="112" viewBox="0 0 538 112" fill="none" xmlns="http://www.w3.org/2000/svg">
<path d="M47.1801 65.9L47.7101 63.34C52.7201 48.58 64.3301 52.42 69.0701 54.89C73.8101 57.36 74.9901 60.95 87.2001 63.82C102.58 67.43 110.69 59.36 110.69 59.36C113.16 40.2 98.6001 -1.14 54.3801 0.919999C16.2701 2.69 0.0600586 35.15 0.0600586 57.51C0.0600586 72.14 15.1001 111.15 55.5101 111.15C94.0101 111.15 107.2 76.8 107.2 76.8C98.6201 73.26 80.0701 75.15 80.0701 75.15C78.3501 68.01 72.9301 65.95 72.9301 65.95C72.7201 80.92 64.0701 86 53.5001 86.21C42.9201 86.42 38.1201 76.25 36.8101 70.21C35.5101 64.17 38.3901 61.27 38.3901 61.27C41.6701 65.29 47.1801 65.9 47.1801 65.9ZM89.8401 35.98C92.5901 35.98 94.8101 38.21 94.8101 40.95C94.8101 43.7 92.5801 45.92 89.8401 45.92C87.1001 45.92 84.8701 43.69 84.8701 40.95C84.8701 38.21 87.0901 35.98 89.8401 35.98Z" fill="#2AB796"/>
<path d="M378.21 91.09C377.02 91.09 375.59 91.11 374.16 91.09C365.57 90.95 362.68 87.02 362.47 79.41C362.22 70.62 362.47 61.82 362.39 53.02C362.35 48.58 360.59 45 356.45 42.89C352.26 40.75 347.77 40.74 344.75 44.17C342.47 46.76 340.7 50.67 340.54 54.09C340.02 64.96 340.35 75.87 340.35 86.77C340.35 88.06 340.35 89.35 340.35 91.08C337.74 91.08 335.39 91.28 333.09 91.04C327.68 90.49 323.84 86.77 323.8 81.35C323.66 57.2 323.74 33.06 323.74 7.94C327.76 8.41 331.66 8.4 335.27 9.43C338.86 10.45 340.28 13.71 340.33 17.36C340.39 22.55 340.35 27.74 340.35 33.72C348.88 25 357.91 25.89 367.17 30.4C373.61 33.54 377.69 39.23 378.01 45.94C378.7 60.8 378.21 75.71 378.21 91.09Z" fill="#2AB796"/>
<path d="M147.15 67.04C147.16 72.99 154.29 78.07 161.53 78.41C168.48 78.74 175.21 77.84 180.95 73.32C181.38 72.98 182.15 73.07 182.77 72.96C184.64 83.56 180.85 89.43 169.42 91.52C160.23 93.2 151.16 92.52 142.82 86.83C133.3 80.33 127.99 67.16 130.08 55.66C131.13 49.86 132.39 44.45 135.66 39.47C144.57 25.91 165.23 22.81 178.39 33.9C183.75 38.42 186.99 50.62 184.5 57.05C181.93 63.69 175.87 65.17 169.77 65.78C162.26 66.54 154.69 66.65 147.15 67.04ZM145.93 55.17C152.63 54.77 158.87 54.71 165 53.92C170.05 53.27 171.54 48.42 168.35 44.37C165.97 41.34 160.45 39.89 156.32 41.07C149.68 42.96 147.23 47.99 145.93 55.17Z" fill="#2AB796"/>
<path d="M401.16 66.66C403.32 73.79 409.35 78.28 416.11 78.48C422.99 78.68 429.53 77.76 435.31 73.68C435.62 73.46 435.97 73.26 436.33 73.15C436.55 73.08 436.82 73.19 437.07 73.22C439.91 86.52 430.77 91.25 420.98 91.92C413.86 92.4 406.89 92.42 400.42 88.77C390.43 83.13 384.91 74.82 384.46 63.18C384.16 55.52 385.19 48.26 388.84 41.41C397.18 25.78 421.55 22.09 433.5 34.8C438.68 40.31 440.71 47.07 439.71 54.49C438.84 60.88 434.12 63.88 428.31 65.01C423.63 65.92 418.83 66.33 414.07 66.63C409.88 66.87 405.67 66.66 401.16 66.66ZM401.33 55.16C407.58 54.77 413.58 54.79 419.46 53.93C425.25 53.08 426.49 48.52 422.51 44.3C419.02 40.6 414.08 39.69 409.02 41.82C403.76 44.03 400.94 48.6 401.33 55.16Z" fill="#2AB796"/>
<path d="M484.16 97.8C487.79 97.38 491.17 97.24 494.43 96.55C500.52 95.26 504.08 88.03 501.18 82.81C492.17 66.64 486.3 49.31 481.78 31.46C481.6 30.74 481.76 29.94 481.76 28.82C485.52 28.82 489.19 28.66 492.83 28.87C496.09 29.06 499.32 32.94 499.8 36.75C500.91 45.61 506.41 61.29 511.39 69.58C517.23 56.56 520.81 43.12 522.95 28.82C526 28.82 529.14 28.63 532.24 28.87C536.18 29.17 539.07 33.89 537.52 38.43C532.42 53.35 527.36 68.31 521.49 82.93C518.55 90.25 514.1 97.01 509.97 103.8C506.8 109.01 497.28 112.3 491.61 110.69C486.17 109.12 483.7 104.91 484.16 97.8Z" fill="#2AB796"/>
<path d="M238.91 12.25C239.9 20.46 238.92 23.04 234.04 25C232.89 25.46 231.55 25.64 230.29 25.65C222.41 25.71 214.54 25.68 206.39 25.68C206.39 31.98 206.39 38.06 206.39 44.56C211.03 44.56 215.59 44.56 220.15 44.56C224.74 44.56 229.34 44.56 233.88 44.56C236.12 53.12 232.56 57.93 224.09 57.98C218.57 58.01 213.05 57.99 207.09 57.99C207.09 68.93 207.09 79.75 207.09 91.06C203.96 91.06 201.22 91.34 198.55 91C193.11 90.32 190.35 87.21 190.32 81.6C190.23 62.17 190.19 42.73 190.33 23.3C190.39 15.61 194.18 12.25 201.97 12.25C214.22 12.25 226.45 12.25 238.91 12.25Z" fill="#2AB796"/>
<path d="M271.62 73.01C277.77 74.9 283.38 77.07 289.2 78.23C292.02 78.79 295.43 77.92 298.17 76.75C299.74 76.08 301.44 73.45 301.33 71.81C301.23 70.26 299.12 68.1 297.44 67.53C293.71 66.27 289.71 65.75 285.79 65.09C277.32 63.67 270.98 58.44 270.04 51.96C268.82 43.45 272.78 35.46 280.47 31.13C289.11 26.27 298.29 25.76 307.41 29.04C314.25 31.5 317.87 36.25 316.39 46.59C312.28 45.01 308.27 42.71 304.01 42.05C299.52 41.35 294.7 41.79 290.19 42.62C288.51 42.93 286.35 45.65 286.11 47.5C285.79 49.92 288.11 51.21 290.74 51.71C296.02 52.72 301.38 53.67 306.46 55.37C319.48 59.75 320.89 73.04 314.57 83.19C311.46 88.18 306.45 90.65 300.82 91.41C293.05 92.47 285.27 93.09 277.99 88.77C273.7 86.23 271.41 82.84 271.59 77.82C271.67 76.05 271.62 74.25 271.62 73.01Z" fill="#2AB796"/>
<path d="M481.41 44.21C477.67 43.54 474.08 42.15 470.64 42.44C464.39 42.97 461.17 47.56 461.13 54.69C461.07 66.62 461.11 78.56 461.11 90.44C454.16 92.22 448.07 90.13 446.02 85.24C445.54 84.09 445.33 82.76 445.32 81.5C445.27 70.6 444.94 59.7 445.38 48.82C445.89 36.5 453.81 28.92 466.05 28.04C468.26 27.88 470.61 27.75 472.71 28.3C479.36 30.06 482.74 35.09 481.41 44.21Z" fill="#2AB796"/>
<path d="M270.64 78.58C271.47 90.2 266.55 94.03 255.28 90.85C248.44 88.92 243.96 84.44 243.29 77.29C242.6 69.91 242.55 62.47 242.44 55.05C242.31 46.69 242.41 38.33 242.41 30.03C250.27 28.9 255.82 30.94 257.61 35.74C258.4 37.86 258.92 40.21 258.96 42.47C259.11 51.12 259.02 59.78 259.02 68.44C259.02 76.75 259.85 77.67 268.14 78.47C268.9 78.52 269.67 78.53 270.64 78.58Z" fill="#2AB796"/>
<path d="M241.62 15.47C241.62 9.72998 244.63 6.72998 250.38 6.72998C256.64 6.72998 259.8 9.77998 259.81 15.81C259.81 21.57 256.4 24.91 250.55 24.89C244.87 24.87 241.62 21.45 241.62 15.47Z" fill="#2AB796"/>
</svg>
